<svg width="141" height="141" viewBox="0 0 141 141" fill="none" xmlns="http://www.w3.org/2000/svg">
<g clip-path="url(#clip0_257_1226)">
<path d="M107.665 8.25331L97.1414 31.512L101.771 42.572L92.7547 51.9146L115.551 55.0646L94.2154 68.4626L93.9214 75.1873C93.9214 75.1873 74.9234 77.2313 73.752 89.5093C73.752 89.5093 79.0114 90.0926 86.3194 85.1273L93.044 85.4213L103.567 83.27L108.243 84.838L132.795 78.9906L112.336 95.3566L111.753 100.91L99.4747 104.419L103.273 114.065L77.2614 112.021L97.4307 137.011L78.4327 130.506C78.4327 130.506 71.7827 130.212 71.0547 129.19L64.26 122.54L61.7027 127.216L51.814 114.173L35.5694 134.795L26.362 132.018L42.8774 112.726L43.2087 110.887L29.9927 112.311L29.1154 107.56L17.6447 106.319L18.3027 101.643L3.24805 85.2533L22.904 87.834L26.6327 88.128L23.7114 84.11L9.45938 67.1L22.3207 66.176L14.9147 51.9006L19.9827 51.7046L23.59 19.1873L28.9474 34.3633L30.898 40.794L34.5987 46.4453V50.342L36.9367 54.2386L41.4167 51.1213L52.234 78.23C52.234 78.23 61.3947 72.3126 51.6507 55.7226L52.9154 51.3126L51.3567 29.2953L64.9974 42.936L69.09 29.4913C69.09 29.4913 75.3247 25.0113 78.638 29.0993L85.456 18.772L89.3527 20.3306L110.007 4.54797L107.665 8.25331Z" fill="#1A4436"/>
<path d="M77.4805 45.8666L74.0272 67.6553L72.0625 67.4546L77.4805 45.8666Z" fill="black"/>
<path d="M84.7832 32.0067L81.3299 53.7953L79.3652 53.5993L84.7832 32.0067Z" fill="black"/>
<path d="M68.5996 58.4059L65.1463 80.1946L63.1816 79.9939L68.5996 58.4059Z" fill="black"/>
<path d="M61.7207 69.6666L58.2674 91.4553L56.3027 91.2546L61.7207 69.6666Z" fill="black"/>
<path d="M55.7295 78.5099L52.2761 100.294L51.1328 101.615L55.7295 78.5099Z" fill="black"/>
<path d="M91.2792 49.6046L73.4199 62.5546L74.4886 64.2159L91.2792 49.6046Z" fill="black"/>
<path d="M99.3027 36.8133L81.4434 49.7633L82.512 51.4246L99.3027 36.8133Z" fill="black"/>
<path d="M84.125 63.2033L66.2656 76.1533L67.3343 77.8146L84.125 63.2033Z" fill="black"/>
<path d="M77.9336 74.436L60.0742 87.386L61.1429 89.0473L77.9336 74.436Z" fill="black"/>
<path d="M72.0351 83.7833L54.1758 96.7333L55.2444 98.3947L72.0351 83.7833Z" fill="black"/>
<path d="M99.5308 21.0913L48.2861 115.596L35.5741 134.79C35.5741 134.79 25.8814 130.212 26.4648 130.212C27.0481 130.212 42.8821 112.726 42.8821 112.726L103.236 13.6853L99.5308 21.0913Z" fill="black"/>
<path d="M51.1138 88.4173L45.5558 101.139L42.6952 93.1866L42.8352 93.2239L47.8938 78.1179L42.0698 91.4413L40.3572 86.6673L40.5625 86.7233L45.6258 71.6173L39.7645 85.0246L36.2365 75.206L36.2412 75.2106L41.3045 60.1046L35.5458 73.2786L33.9125 68.7333L34.0758 68.7799L39.1392 53.674L33.3012 67.0299L28.9938 55.0413L33.1098 67.4686L33.0818 67.534L20.0898 60.1513L33.6512 69.1113L35.2518 73.9506L35.2098 74.0533L22.0685 66.5866L35.8258 75.6726L38.9992 85.2533L26.4365 78.1179L39.6525 87.2646V87.2413L41.0992 91.5999L28.5552 84.4739L41.7665 93.6159L44.6038 102.184L32.1205 95.0906L45.2665 104.191L46.2558 107.177L47.1798 105.661L46.2232 103.005L51.1138 88.4173Z" fill="black"/>
<path d="M68.8195 111.331L57.2041 103.729L65.5248 102.235L65.4641 102.366L79.5155 109.879L67.3495 101.909L72.3428 101.017L72.2495 101.213L86.3008 108.727L74.0601 100.709L84.3268 98.8706L98.3735 106.384L86.3428 98.5066L91.0981 97.6573L91.0281 97.8113L105.075 105.325L92.8808 97.3353L105.42 95.0906L92.4795 97.074L92.4188 97.0366L101.864 85.4586L90.7715 97.3353L85.7315 98.11L85.6381 98.0446L95.1908 86.336L83.9395 98.3853L73.9621 99.9113L83.0948 88.7206L71.8715 100.224L71.8948 100.229L67.3541 100.924L76.4728 89.7473L65.2541 101.246L56.3361 102.613L65.4081 91.4926L54.2455 102.935L51.1328 103.411L52.4768 104.573L55.2535 104.079L68.8195 111.331Z" fill="black"/>
<path d="M138.497 76.2373C138.091 75.458 137.195 75.066 136.351 75.29L110.007 82.3787C109.961 82.3273 109.909 82.2853 109.858 82.2433C107.646 80.3767 101.36 82.0427 96.2828 83.8487L88.8115 82.598C88.2375 82.5 87.6541 82.6773 87.2295 83.0693C83.8928 86.154 80.2435 87.0547 77.9055 87.2927C81.6621 79.7 93.3615 76.984 93.4501 76.9653C96.1008 76.438 97.0015 75.1127 97.3001 74.0907C97.6501 72.8727 97.2535 71.6873 96.7168 70.7587L119.345 55.858C120.008 55.4193 120.321 54.612 120.125 53.842C119.933 53.072 119.275 52.5073 118.487 52.4327L97.3328 50.4493L99.5775 48.41C102.055 47.2807 102.923 45.5353 103.208 44.2427C104.015 40.5793 101.103 36.3933 99.5821 34.5173L103.913 24.6007L113.848 4.20732C114.151 3.58665 114.091 2.85399 113.689 2.29399C113.288 1.73865 112.644 1.43999 111.925 1.53332C107.375 2.12132 98.7981 11.1467 97.2628 12.8173L91.2195 18.1373L90.2628 16.728C89.7355 15.9533 88.7135 15.6873 87.8921 16.0933C83.5055 18.2447 80.6588 23.4573 79.3615 26.3507C77.3361 25.4967 75.4181 25.3987 73.6401 26.0427C69.6781 27.4753 68.1475 32.1327 68.0775 32.3567L65.6741 40.3227C59.2341 35.0867 54.3155 27.0133 54.2595 26.9247C53.9375 26.3973 53.3821 26.0613 52.7661 26.024C52.1641 25.9867 51.5574 26.262 51.1795 26.752C49.1168 29.426 50.4468 38.9693 51.1141 42.9593L52.4721 50.8507C51.3241 51.3267 50.7361 52.078 50.4375 52.722C49.3455 55.0647 51.1421 57.776 51.3241 57.958C54.9268 66.162 53.4615 71.426 52.1315 73.9833C50.2088 69.9793 47.3201 59.498 45.3368 50.2533C45.1875 49.5673 44.6695 49.0213 43.9881 48.8393C43.3068 48.6573 42.5881 48.872 42.1168 49.3947C41.2068 50.4027 40.0541 51.4293 39.3634 51.8633C36.9974 48.8207 30.8981 32.7067 26.0588 17.9693C25.8908 17.4793 25.5174 17.0687 25.0321 16.8587C24.5514 16.644 23.9961 16.644 23.5108 16.8633C18.4474 19.136 18.5875 37.546 19.2828 49.922L15.9508 49.2033C15.3254 49.0773 14.6908 49.2593 14.2428 49.7027C13.7948 50.146 13.5988 50.7853 13.7201 51.4013C14.2661 54.1313 17.8314 60.4127 19.9781 64.0293L9.59945 64.916C8.88545 64.9767 8.26945 65.4387 8.01278 66.106C7.75611 66.7733 7.90545 67.5293 8.39078 68.052L26.5534 87.5167C21.6814 86.952 12.5768 84.95 4.65278 82.8313C4.09745 82.6913 3.49078 82.8033 3.03345 83.1533C2.57145 83.508 2.30078 84.0587 2.30078 84.642C2.30545 89.8453 12.6421 98.2593 17.7288 102.091C17.0054 103.393 16.8328 104.821 16.8748 105.684C16.9074 106.277 17.2154 106.818 17.7148 107.145C19.7308 108.475 24.9481 109.021 28.3781 109.249L27.6221 111.457C27.4121 112.073 27.5334 112.749 27.9441 113.253C28.5741 114.014 29.0781 114.644 39.2608 113.286L24.5141 130.161C24.1034 130.632 23.9541 131.271 24.1128 131.873C24.2714 132.471 24.7194 132.956 25.3028 133.161L34.5661 136.391C35.3455 136.652 36.2181 136.386 36.7034 135.709L50.1575 116.879C52.9341 122.512 60.2001 128.299 61.9688 129.643C62.4215 129.993 63.0048 130.114 63.5461 129.974C64.0921 129.843 64.5541 129.465 64.7968 128.957L65.9681 126.493C70.5928 132.569 75.6515 132.256 77.5461 131.85L86.8048 135.565L99.8995 139.933C100.095 139.998 100.296 140.031 100.492 140.031C101.103 140.031 101.687 139.727 102.046 139.205C102.517 138.505 102.461 137.581 101.915 136.941L82.0355 113.767C86.8048 113.925 96.2268 114.896 104.79 116.011C105.481 116.091 106.171 115.801 106.568 115.232C106.965 114.658 107.016 113.911 106.689 113.291L103.003 106.23C109.937 105.152 113.983 103.169 115.351 100.201C115.915 98.9733 115.897 97.8533 115.71 96.9993L138.035 78.5427C138.703 77.978 138.899 77.0213 138.497 76.2373ZM112.285 94.96C111.538 95.576 111.384 96.654 111.93 97.452C111.935 97.4567 112.238 97.9887 111.939 98.628C111.613 99.342 109.769 101.75 99.8808 102.861C99.2695 102.931 98.7281 103.295 98.4388 103.841C98.1495 104.382 98.1448 105.035 98.4341 105.586L101.701 111.839C78.4001 108.932 77.4155 110.239 76.7621 111.116C76.2301 111.816 76.2628 112.791 76.8368 113.459L94.6681 134.244L88.0881 132.051L78.3675 128.149C78.1528 128.061 77.9148 128.023 77.6768 128.023C77.4621 128.023 77.2475 128.056 77.0468 128.126C76.8321 128.215 71.8155 129.783 67.3448 121.765C67.0041 121.154 66.3321 120.613 65.6461 120.804C64.9461 120.827 64.3161 121.238 64.0175 121.873L62.4308 125.219C57.8155 121.341 52.5701 115.689 52.8268 112.698C52.9015 111.858 52.3974 111.074 51.6088 110.785C50.8155 110.491 49.9335 110.761 49.4388 111.452L34.4775 132.396L29.1528 130.543L45.3881 111.965C45.9061 111.373 45.9995 110.523 45.6215 109.837C45.2481 109.147 44.4968 108.778 43.7035 108.881C39.5081 109.506 34.6875 110.103 31.9761 110.295L32.7228 108.115C32.9141 107.555 32.8301 106.939 32.4941 106.449C32.1581 105.959 31.6121 105.661 31.0194 105.642C27.3328 105.511 22.8948 105.04 20.7761 104.429C20.9021 104.018 21.1308 103.579 21.5274 103.29C22.0174 102.94 22.3068 102.375 22.3068 101.773C22.3068 101.171 22.0221 100.607 21.5368 100.252C15.9228 96.1827 9.97278 90.9187 7.37811 87.4093C17.7708 90.0693 29.1761 92.4353 31.7054 90.7553C32.1674 90.452 32.4708 89.9667 32.5361 89.416C32.6014 88.87 32.4241 88.3193 32.0461 87.918L13.7528 68.304L23.3054 67.4827C23.9541 67.4267 24.5234 67.0393 24.8174 66.456C25.1114 65.8773 25.0788 65.182 24.7334 64.6313C22.8574 61.6073 20.0994 56.8473 18.5361 53.5713L20.9068 54.0847C21.4855 54.2013 22.0781 54.0567 22.5214 53.6693C22.9648 53.2867 23.2028 52.7173 23.1654 52.1293C22.3674 39.9167 22.7034 28.4367 23.8328 23.1727C34.4728 54.92 37.5201 55.5453 38.5561 55.7553C39.6201 55.956 40.8941 55.4847 42.3921 54.3087C44.5715 63.9313 48.0995 77.152 51.3381 78.8133C52.0521 79.1867 52.9201 79.056 53.4988 78.4913C53.8115 78.1833 61.0635 70.8567 54.5535 56.1333C54.1708 55.6013 53.7555 54.612 53.7788 54.3787C53.8348 54.332 54.1195 54.192 54.7541 54.1453C55.2815 54.1033 55.7621 53.842 56.0841 53.4267C56.4061 53.0113 56.5415 52.4793 56.4528 51.9613L54.7961 42.3433C54.2315 38.9647 53.8861 35.5067 53.8115 32.9447C56.4248 36.5147 60.6808 41.6293 65.6461 44.9753C66.1408 45.3067 66.7661 45.3907 67.3215 45.19C67.8815 44.9893 68.3108 44.5367 68.4835 43.9673L71.6428 33.4813C71.8995 32.6787 73.0475 30.2473 74.9048 29.5753C76.1181 29.146 77.5928 29.468 79.3055 30.56C79.7814 30.8633 80.3835 30.9333 80.9248 30.7467C81.4661 30.5553 81.8908 30.1307 82.0775 29.5893C82.7355 27.6853 84.9661 22.7807 88.1674 20.3213L89.3061 22.0013C89.6095 22.4447 90.0855 22.7433 90.6175 22.8087C91.1728 22.8693 91.6861 22.7107 92.0921 22.356L99.8621 15.5007C102.074 13.1207 105.173 10.1247 107.847 7.98265L100.511 23.0373L95.6808 34.102C95.3821 34.7833 95.5175 35.5767 96.0168 36.1227C97.3748 37.5927 100.021 41.3167 99.5448 43.4493C99.4421 43.8927 99.1621 44.546 97.8321 45.092C97.6268 45.176 97.4448 45.2927 97.2815 45.4373L91.6721 50.538C91.1261 51.0373 90.9255 51.812 91.1541 52.512C91.3921 53.2167 92.0174 53.7113 92.7548 53.786L112.835 55.6713L92.9601 68.7473C92.4841 69.06 92.1808 69.5733 92.1295 70.1427C92.0735 70.7073 92.2881 71.272 92.6988 71.664C93.1795 72.126 93.6648 72.8587 93.7675 72.924C93.7628 72.924 93.5481 73.1387 92.6661 73.3113C91.9941 73.4607 76.2068 77.096 73.4115 88.7533C73.2901 89.276 73.3928 89.8173 73.6915 90.256C73.9948 90.6947 74.4708 90.984 74.9981 91.0447C75.3155 91.1053 82.5488 91.9267 89.0588 86.4433L96.1335 87.6287C96.4555 87.6893 96.7775 87.652 97.0855 87.54C101.145 86.0653 105.537 85.006 107.133 85.1227C107.231 85.4447 107.413 85.748 107.669 85.986C108.136 86.4153 108.808 86.5647 109.419 86.4153L129.001 81.1467L112.285 94.96Z" fill="black"/>
</g>
<defs>
<clipPath id="clip0_257_1226">
<rect width="140" height="140" fill="white" transform="translate(0.5 0.777344)"/>
</clipPath>
</defs>
</svg>
