<svg width="141" height="141" viewBox="0 0 141 141" fill="none" xmlns="http://www.w3.org/2000/svg">
<g clip-path="url(#clip0_257_1347)">
<path d="M33.3353 133.301L43.8586 110.043L39.2293 98.9826L48.2453 89.6399L25.4486 86.4899L46.7846 73.0919L47.0786 66.3673C47.0786 66.3673 66.0766 64.3233 67.248 52.0453C67.248 52.0453 61.9886 51.4619 54.6806 56.4273L47.956 56.1333L37.4326 58.2846L32.7566 56.7166L8.20529 62.5639L28.664 46.1979L29.2473 40.6446L41.5253 37.1353L37.7266 27.4893L63.7386 29.5333L43.5693 4.54324L62.5673 11.0486C62.5673 11.0486 69.2173 11.3426 69.9453 12.3646L76.74 19.0146L79.2973 14.3386L89.186 27.3819L105.431 6.75992L114.638 9.53659L98.1226 28.8286L97.7913 30.6673L111.007 29.2439L111.885 33.9946L123.355 35.2359L122.697 39.9119L137.752 56.3013L118.096 53.7206L114.367 53.4266L117.289 57.4446L131.541 74.4546L118.679 75.3786L126.085 89.6539L121.017 89.8499L117.41 122.367L112.053 107.191L110.102 100.761L106.401 95.1093V91.2126L104.063 87.3159L99.5833 90.4333L88.766 63.3246C88.766 63.3246 79.6053 69.2419 89.3493 85.8319L88.0846 90.2419L89.6433 112.259L76.0026 98.6186L71.91 112.063C71.91 112.063 65.6753 116.543 62.362 112.455L55.544 122.783L51.6473 121.224L30.9926 137.007L33.3353 133.301Z" fill="#1A4436"/>
<path d="M63.5195 95.688L66.9728 73.8993L68.9375 74.1L63.5195 95.688Z" fill="black"/>
<path d="M56.2168 109.548L59.6701 87.7593L61.6348 87.9553L56.2168 109.548Z" fill="black"/>
<path d="M72.4004 83.1486L75.8537 61.3599L77.8184 61.5606L72.4004 83.1486Z" fill="black"/>
<path d="M79.2793 71.8879L82.7326 50.0993L84.6973 50.2999L79.2793 71.8879Z" fill="black"/>
<path d="M85.2705 63.0446L88.7239 41.2606L89.8672 39.9399L85.2705 63.0446Z" fill="black"/>
<path d="M49.7208 91.95L67.5801 79L66.5114 77.3386L49.7208 91.95Z" fill="black"/>
<path d="M41.6973 104.741L59.5566 91.7912L58.488 90.1299L41.6973 104.741Z" fill="black"/>
<path d="M56.875 78.3513L74.7344 65.4013L73.6657 63.74L56.875 78.3513Z" fill="black"/>
<path d="M63.0664 67.1187L80.9258 54.1687L79.8571 52.5073L63.0664 67.1187Z" fill="black"/>
<path d="M68.9649 57.7712L86.8242 44.8212L85.7556 43.1599L68.9649 57.7712Z" fill="black"/>
<path d="M41.4692 120.463L92.7139 25.9586L105.426 6.76462C105.426 6.76462 115.119 11.3426 114.535 11.3426C113.952 11.3426 98.1179 28.8286 98.1179 28.8286L37.7639 127.869L41.4692 120.463Z" fill="black"/>
<path d="M89.8862 53.1373L95.4442 40.4159L98.3048 48.368L98.1648 48.3306L93.1062 63.4366L98.9302 50.1133L100.643 54.8873L100.437 54.8313L95.3742 69.9373L101.235 56.53L104.763 66.3486L104.759 66.344L99.6955 81.4499L105.454 68.2759L107.087 72.8213L106.924 72.7746L101.861 87.8806L107.699 74.5246L112.006 86.5133L107.89 74.0859L107.918 74.0206L120.91 81.4033L107.349 72.4433L105.748 67.6039L105.79 67.5013L118.931 74.9679L105.174 65.882L102.001 56.3013L114.563 63.4366L101.347 54.2899V54.3133L99.9008 49.9546L112.445 57.0806L99.2335 47.9386L96.3962 39.3706L108.879 46.464L95.7335 37.364L94.7442 34.3773L93.8202 35.8939L94.7768 38.5493L89.8862 53.1373Z" fill="black"/>
<path d="M72.1805 30.2239L83.7959 37.8259L75.4752 39.3193L75.5359 39.1886L61.4845 31.6753L73.6505 39.646L68.6572 40.5373L68.7505 40.3413L54.6992 32.8279L66.9399 40.8453L56.6732 42.6839L42.6265 35.1706L54.6572 43.048L49.9019 43.8973L49.9719 43.7433L35.9252 36.2299L48.1192 44.2193L35.5799 46.464L48.5205 44.4806L48.5812 44.5179L39.1359 56.0959L50.2285 44.2193L55.2685 43.4446L55.3619 43.5099L45.8092 55.2186L57.0605 43.1693L67.0379 41.6433L57.9052 52.834L69.1285 41.3306L69.1052 41.3259L73.6459 40.6306L64.5272 51.8073L75.7459 40.3086L84.6639 38.9413L75.5919 50.062L86.7545 38.6193L89.8672 38.1433L88.5232 36.9813L85.7465 37.476L72.1805 30.2239Z" fill="black"/>
<path d="M2.50255 65.3173C2.90854 66.0966 3.80453 66.4886 4.6492 66.2646L30.9925 59.176C31.0392 59.2273 31.0905 59.2693 31.1419 59.3113C33.3539 61.178 39.6399 59.512 44.7172 57.706L52.1885 58.9566C52.7625 59.0546 53.3459 58.8773 53.7705 58.4853C57.1072 55.4006 60.7565 54.5 63.0945 54.262C59.3379 61.8546 47.6385 64.5706 47.5499 64.5893C44.8992 65.1166 43.9985 66.442 43.6999 67.464C43.3499 68.682 43.7465 69.8673 44.2832 70.796L21.6545 85.6966C20.9919 86.1353 20.6792 86.9426 20.8752 87.7126C21.0665 88.4826 21.7245 89.0473 22.5132 89.122L43.6672 91.1053L41.4225 93.1446C38.9445 94.274 38.0765 96.0193 37.7919 97.312C36.9845 100.975 39.8965 105.161 41.4179 107.037L37.0872 116.954L27.1519 137.347C26.8485 137.968 26.9092 138.701 27.3105 139.261C27.7119 139.816 28.3559 140.115 29.0745 140.021C33.6245 139.433 42.2019 130.408 43.7372 128.737L49.7805 123.417L50.7372 124.827C51.2645 125.601 52.2865 125.867 53.1079 125.461C57.4945 123.31 60.3412 118.097 61.6385 115.204C63.6639 116.058 65.5819 116.156 67.3599 115.512C71.3219 114.079 72.8525 109.422 72.9225 109.198L75.3259 101.232C81.7659 106.468 86.6845 114.541 86.7405 114.63C87.0625 115.157 87.6179 115.493 88.2339 115.531C88.8359 115.568 89.4426 115.293 89.8205 114.803C91.8832 112.129 90.5532 102.585 89.8859 98.5953L88.5279 90.704C89.6759 90.228 90.2639 89.4766 90.5625 88.8326C91.6545 86.49 89.8579 83.7786 89.6759 83.5966C86.0732 75.3926 87.5385 70.1286 88.8685 67.5713C90.7912 71.5753 93.6799 82.0566 95.6632 91.3013C95.8125 91.9873 96.3305 92.5333 97.0119 92.7153C97.6932 92.8973 98.4119 92.6826 98.8832 92.16C99.7932 91.152 100.946 90.1253 101.637 89.6913C104.003 92.734 110.102 108.848 114.941 123.585C115.109 124.075 115.483 124.486 115.968 124.696C116.449 124.911 117.004 124.911 117.489 124.691C122.553 122.419 122.413 104.009 121.717 91.6326L125.049 92.3513C125.675 92.4773 126.309 92.2953 126.757 91.852C127.205 91.4086 127.401 90.7693 127.28 90.1533C126.734 87.4233 123.169 81.142 121.022 77.5253L131.401 76.6386C132.115 76.578 132.731 76.116 132.987 75.4486C133.244 74.7813 133.095 74.0253 132.609 73.5026L114.447 54.038C119.319 54.6026 128.423 56.6046 136.347 58.7233C136.903 58.8633 137.509 58.7513 137.967 58.4013C138.429 58.0466 138.699 57.496 138.699 56.9126C138.695 51.7093 128.358 43.2953 123.271 39.464C123.995 38.162 124.167 36.734 124.125 35.8706C124.093 35.278 123.785 34.7366 123.285 34.41C121.269 33.08 116.052 32.534 112.622 32.3053L113.378 30.098C113.588 29.482 113.467 28.8053 113.056 28.3013C112.426 27.5406 111.922 26.9106 101.739 28.2686L116.486 11.394C116.897 10.9226 117.046 10.2833 116.887 9.6813C116.729 9.08397 116.281 8.59863 115.697 8.3933L106.434 5.16397C105.655 4.90263 104.782 5.16864 104.297 5.84531L90.8425 24.6753C88.0659 19.0426 80.7999 13.256 79.0312 11.912C78.5785 11.562 77.9952 11.4406 77.4539 11.5806C76.9079 11.7113 76.4459 12.0893 76.2032 12.598L75.0319 15.062C70.4072 8.98596 65.3485 9.29863 63.4539 9.70464L54.1952 5.98997L41.1005 1.62196C40.9045 1.55663 40.7039 1.52397 40.5079 1.52397C39.8965 1.52397 39.3132 1.8273 38.9539 2.34996C38.4825 3.04997 38.5385 3.97397 39.0845 4.6133L58.9645 27.788C54.1952 27.6293 44.7732 26.6586 36.2099 25.5433C35.5192 25.464 34.8285 25.7533 34.4319 26.3226C34.0352 26.8966 33.9839 27.6433 34.3105 28.264L37.9972 35.3246C31.0625 36.4026 27.0165 38.386 25.6492 41.354C25.0845 42.5813 25.1032 43.7013 25.2899 44.5553L2.96454 63.012C2.29721 63.5766 2.10121 64.5333 2.50255 65.3173ZM28.7152 46.5946C29.4619 45.9786 29.6159 44.9006 29.0699 44.1026C29.0652 44.098 28.7619 43.566 29.0605 42.9266C29.3872 42.2126 31.2305 39.8046 41.1192 38.694C41.7305 38.624 42.2719 38.26 42.5612 37.714C42.8505 37.1726 42.8552 36.5193 42.5659 35.9686L39.2992 29.7153C62.5999 32.6226 63.5845 31.316 64.2379 30.4386C64.7699 29.7386 64.7372 28.7633 64.1632 28.096L46.3319 7.31062L52.9119 9.50397L62.6325 13.4053C62.8472 13.494 63.0852 13.5313 63.3232 13.5313C63.5379 13.5313 63.7525 13.4986 63.9532 13.4286C64.1679 13.34 69.1845 11.772 73.6552 19.7893C73.9959 20.4006 74.6679 20.942 75.3539 20.7506C76.0539 20.7273 76.6839 20.3166 76.9825 19.682L78.5692 16.336C83.1845 20.214 88.4299 25.8653 88.1732 28.8566C88.0985 29.6966 88.6026 30.4806 89.3912 30.77C90.1845 31.064 91.0665 30.7933 91.5612 30.1026L106.523 9.15863L111.847 11.0113L95.6119 29.5893C95.0939 30.182 95.0005 31.0313 95.3785 31.7173C95.7519 32.408 96.5032 32.7766 97.2965 32.674C101.492 32.0486 106.313 31.4513 109.024 31.26L108.277 33.4393C108.086 33.9993 108.17 34.6153 108.506 35.1053C108.842 35.5953 109.388 35.894 109.981 35.9126C113.667 36.0433 118.105 36.5146 120.224 37.126C120.098 37.5366 119.869 37.9753 119.473 38.2646C118.983 38.6146 118.693 39.1793 118.693 39.7813C118.693 40.3833 118.978 40.948 119.463 41.3026C125.077 45.372 131.027 50.636 133.622 54.1453C123.229 51.4853 111.824 49.1193 109.295 50.7993C108.833 51.1026 108.529 51.588 108.464 52.1386C108.399 52.6846 108.576 53.2353 108.954 53.6366L127.247 73.2506L117.695 74.072C117.046 74.128 116.477 74.5153 116.183 75.0986C115.889 75.6773 115.921 76.3726 116.267 76.9233C118.143 79.9473 120.901 84.7073 122.464 87.9833L120.093 87.47C119.515 87.3533 118.922 87.498 118.479 87.8853C118.035 88.268 117.797 88.8373 117.835 89.4253C118.633 101.638 118.297 113.118 117.167 118.382C106.527 86.6346 103.48 86.0093 102.444 85.7993C101.38 85.5986 100.106 86.07 98.6079 87.246C96.4285 77.6233 92.9005 64.4026 89.6619 62.7413C88.9479 62.368 88.0799 62.4986 87.5012 63.0633C87.1885 63.3713 79.9365 70.698 86.4465 85.4213C86.8292 85.9533 87.2445 86.9426 87.2212 87.176C87.1652 87.2226 86.8805 87.3626 86.2459 87.4093C85.7185 87.4513 85.2379 87.7126 84.9159 88.128C84.5939 88.5433 84.4585 89.0753 84.5472 89.5933L86.2039 99.2113C86.7685 102.59 87.1139 106.048 87.1885 108.61C84.5752 105.04 80.3192 99.9253 75.3539 96.5793C74.8592 96.248 74.2339 96.164 73.6785 96.3646C73.1185 96.5653 72.6892 97.018 72.5165 97.5873L69.3572 108.073C69.1005 108.876 67.9525 111.307 66.0952 111.979C64.8819 112.409 63.4072 112.087 61.6945 110.995C61.2186 110.691 60.6165 110.621 60.0752 110.808C59.5339 110.999 59.1092 111.424 58.9225 111.965C58.2645 113.869 56.0339 118.774 52.8326 121.233L51.6939 119.553C51.3905 119.11 50.9145 118.811 50.3825 118.746C49.8272 118.685 49.3139 118.844 48.9079 119.199L41.1379 126.054C38.9259 128.434 35.8272 131.43 33.1532 133.572L40.4892 118.517L45.3192 107.453C45.6179 106.771 45.4825 105.978 44.9832 105.432C43.6252 103.962 40.9792 100.238 41.4552 98.1053C41.5579 97.662 41.8379 97.0086 43.1679 96.4626C43.3732 96.3786 43.5552 96.262 43.7185 96.1173L49.3279 91.0166C49.8739 90.5173 50.0745 89.7426 49.8459 89.0426C49.6079 88.338 48.9826 87.8433 48.2452 87.7686L28.1645 85.8833L48.0399 72.8073C48.5159 72.4946 48.8192 71.9813 48.8705 71.412C48.9265 70.8473 48.7119 70.2826 48.3012 69.8906C47.8205 69.4286 47.3352 68.696 47.2325 68.6306C47.2372 68.6306 47.4519 68.416 48.3339 68.2433C49.0059 68.094 64.7932 64.4586 67.5885 52.8013C67.7099 52.2786 67.6072 51.7373 67.3085 51.2986C67.0052 50.86 66.5292 50.5706 66.0019 50.51C65.6845 50.4493 58.4512 49.628 51.9412 55.1113L44.8665 53.926C44.5445 53.8653 44.2225 53.9026 43.9145 54.0146C39.8545 55.4893 35.4632 56.5486 33.8672 56.432C33.7692 56.11 33.5872 55.8066 33.3305 55.5686C32.8639 55.1393 32.1919 54.99 31.5805 55.1393L11.9992 60.408L28.7152 46.5946Z" fill="black"/>
</g>
<defs>
<clipPath id="clip0_257_1347">
<rect width="140" height="140" fill="white" transform="matrix(-1 0 0 -1 140.5 140.777)"/>
</clipPath>
</defs>
</svg>
